<svg width="56" height="64" viewBox="0 0 56 64" fill="none" xmlns="http://www.w3.org/2000/svg">
<rect opacity="0.8" x="35.0001" y="28.7" width="10" height="25" transform="rotate(90 35.0001 28.7)" fill="#282B2F"/>
<rect opacity="0.9" x="38.0001" y="40.7" width="9" height="25" transform="rotate(90 38.0001 40.7)" fill="#282B2F"/>
<rect opacity="0.6" x="30" y="15.7" width="11" height="20" transform="rotate(90 30 15.7)" fill="#282B2F"/>
<path d="M46.1396 46.9538L54.0713 55.1104C51.3283 57.6001 48.1191 59.5524 44.4387 60.9656L44.6011 61.3884L44.4387 60.9656C40.5984 62.4404 36.4329 63.1437 31.9375 63.0705C27.3881 62.9964 23.2215 62.1573 19.4321 60.559C15.6364 58.9311 12.3463 56.7032 9.5572 53.8759C6.79502 51.0219 4.66229 47.7012 3.15863 43.9092C1.65765 40.1238 0.940465 36.0005 1.0132 31.5334C1.08594 27.0664 1.93699 22.9687 3.56043 19.2342L3.56092 19.233C5.18778 15.4652 7.42721 12.2164 10.2791 9.48179C13.1587 6.74679 16.5191 4.64077 20.3651 3.164L20.3679 3.16292C24.2075 1.66227 28.3989 0.945783 32.9479 1.01986C37.416 1.09261 41.5289 1.93081 45.2921 3.52901L45.2932 3.52948C48.927 5.06225 52.0718 7.13133 54.7325 9.73554L46.6565 17.5894C45.0126 15.6312 43.0247 14.0646 40.6971 12.8915C38.2199 11.6028 35.5134 10.9366 32.5851 10.8889C29.798 10.8435 27.1993 11.3398 24.7955 12.3828C22.4253 13.3966 20.3385 14.8584 18.5378 16.7644C16.7363 18.6446 15.3333 20.8609 14.3272 23.4077C13.3193 25.9588 12.7936 28.7191 12.7454 31.6841C12.6962 34.7017 13.1309 37.5048 14.0555 40.0885L14.5224 39.9214L14.0555 40.0885C14.9782 42.6666 16.308 44.9401 18.0459 46.9042L18.0482 46.9068C19.786 48.8427 21.8226 50.3706 24.1555 51.4872L24.1555 51.4873L24.1619 51.4903C26.5302 52.5829 29.1104 53.1496 31.8962 53.1949C34.8239 53.2426 37.55 52.6785 40.0675 51.4982L40.0715 51.4963C42.4114 50.3736 44.4352 48.8588 46.1396 46.9538Z" fill="#282B2F" stroke="#282B2F"/>
</svg>
