<svg width="165" height="24" viewBox="0 0 165 24" fill="none" xmlns="http://www.w3.org/2000/svg">
<path d="M21.8893 3.05469C22.6787 3.05469 23.4681 3.05469 24.2814 3.05469C24.5328 3.64771 24.5679 4.42035 24.6658 5.06999C24.7107 5.08348 24.7107 5.08348 24.7564 5.09724C25.968 5.46632 26.9463 6.21898 27.8429 7.2333C27.882 7.2774 27.9211 7.3215 27.9614 7.36693C28.0405 7.48836 28.0405 7.48836 28.0385 7.58651C27.9781 7.73969 27.893 7.77603 27.7671 7.85324C27.7193 7.88305 27.6714 7.91286 27.6221 7.94358C27.5711 7.9745 27.5201 8.00539 27.4691 8.03627C27.3709 8.09701 27.2727 8.15776 27.1744 8.21852C27.1263 8.24779 27.0782 8.27707 27.0286 8.30723C26.8549 8.41527 26.6852 8.53095 26.5162 8.64896C26.4172 8.69754 26.4172 8.69754 26.3254 8.68651C26.2018 8.62499 26.1163 8.52259 26.0168 8.41729C25.7447 8.13794 25.4524 7.94216 25.1357 7.74027C25.1016 7.71482 25.0676 7.68936 25.0324 7.66313C24.1048 7.04074 22.8582 7.04676 21.8465 7.33721C21.7162 7.3826 21.59 7.43376 21.4621 7.48836C21.396 7.51859 21.396 7.51859 21.396 7.51859C21.3564 7.5373 21.2546 7.62654 21.2138 7.64581C20.8121 7.8512 20.4696 8.10953 20.1379 8.44563C20.1027 8.47979 20.0675 8.51396 20.0312 8.54915C19.1569 9.42759 18.6644 10.6883 18.5574 12.0228C18.5116 12.7141 18.5896 13.3665 18.7282 14.0381C18.7353 14.0729 18.7424 14.1077 18.7497 14.1436C19.0279 15.4408 19.8648 16.4921 20.8044 17.1818C21.8053 17.8838 23.0318 18.0709 24.1655 17.7653C24.9131 17.5356 25.7807 17.0396 26.2876 16.3408C26.3163 16.3124 26.3449 16.2841 26.3745 16.2549C26.5356 16.2747 26.6606 16.34 26.8028 16.4283C26.8435 16.4534 26.8841 16.4785 26.926 16.5043C26.9687 16.5312 27.0113 16.558 27.0553 16.5856C27.0989 16.6127 27.1426 16.6398 27.1876 16.6678C27.5187 16.8747 27.8458 17.0886 28.1686 17.313C27.4753 18.5171 26.3547 19.2682 25.2372 19.8038C25.2002 19.8216 25.1632 19.8395 25.1251 19.8579C25.0902 19.8743 25.0552 19.8906 25.0193 19.9075C24.9882 19.9221 24.9571 19.9368 24.925 19.9519C24.8367 19.9833 24.8367 19.9833 24.6658 19.9833C24.6591 20.0274 24.6523 20.0716 24.6453 20.1171C24.5763 20.5595 24.5024 21.0006 24.4256 21.4412C24.4162 21.4952 24.4069 21.5493 24.3973 21.605C24.3885 21.6553 24.3796 21.7056 24.3705 21.7575C24.3626 21.8027 24.3547 21.848 24.3465 21.8946C24.3241 21.9986 24.3241 21.9986 24.2814 22.0489C24.2067 22.0537 24.1318 22.0549 24.0569 22.0547C24.0091 22.0547 23.9612 22.0547 23.9118 22.0547C23.8337 22.0543 23.8337 22.0543 23.7539 22.0539C23.7009 22.0538 23.6479 22.0537 23.5932 22.0537C23.452 22.0534 23.3108 22.053 23.1696 22.0524C23.0255 22.0519 22.8815 22.0517 22.7375 22.0514C22.4547 22.0509 22.172 22.05 21.8893 22.0489C21.8688 21.9782 21.8484 21.9074 21.8281 21.8366C21.8168 21.7972 21.8054 21.7578 21.7937 21.7172C21.742 21.5241 21.707 21.3278 21.673 21.1295C21.6622 21.0676 21.6622 21.0676 21.6511 21.0045C21.5927 20.6656 21.5444 20.326 21.5048 19.9833C21.4704 19.9781 21.436 19.973 21.4005 19.9677C21.2146 19.9251 21.0441 19.8557 20.8667 19.7786C20.8313 19.7634 20.7958 19.7481 20.7592 19.7324C20.4923 19.614 20.2442 19.4707 20.0016 19.2937C19.921 19.2352 19.921 19.2352 19.7961 19.1771C19.645 19.232 19.5199 19.3184 19.3883 19.4204C19.3522 19.4483 19.3161 19.4761 19.2789 19.5048C19.2416 19.5339 19.2044 19.5629 19.1661 19.5928C19.1295 19.621 19.0929 19.6493 19.0553 19.6784C19.0008 19.7206 19.0008 19.7206 18.9451 19.7636C18.891 19.8054 18.891 19.8054 18.8358 19.848C18.7638 19.9048 18.6927 19.9633 18.6227 20.0233C18.5894 20.0514 18.5562 20.0795 18.522 20.1084C18.4927 20.134 18.4635 20.1596 18.4333 20.1859C18.3129 20.2521 18.2564 20.2289 18.1302 20.1848C18.0442 20.1097 18.0442 20.1097 17.9602 20.0119C17.9284 19.9754 17.8966 19.9389 17.8639 19.9013C17.8303 19.8616 17.7967 19.8219 17.7621 19.7809C17.7098 19.7199 17.7098 19.7199 17.6564 19.6576C17.5829 19.5714 17.5096 19.485 17.4365 19.3984C17.3242 19.2656 17.2108 19.1343 17.0973 19.003C17.026 18.9191 16.9549 18.8352 16.8837 18.7512C16.8496 18.7119 16.8155 18.6726 16.7803 18.6321C16.7339 18.5764 16.7339 18.5764 16.6865 18.5196C16.659 18.4871 16.6315 18.4547 16.6031 18.4214C16.5497 18.3206 16.5497 18.3206 16.5572 18.1925C16.6075 18.0154 16.6943 17.8733 16.7849 17.7223C16.824 17.6554 16.8629 17.5885 16.9019 17.5216C16.9635 17.4169 17.0252 17.3124 17.0873 17.2082C17.1472 17.1071 17.2064 17.0054 17.2655 16.9036C17.2843 16.8726 17.3031 16.8417 17.3224 16.8098C17.4006 16.6741 17.448 16.5883 17.4412 16.4216C17.4077 16.3167 17.3743 16.2152 17.3326 16.1146C17.3184 16.0799 17.3042 16.0451 17.2896 16.0093C17.2745 15.9729 17.2594 15.9366 17.2438 15.8991C17.0498 15.4216 16.8671 14.9579 16.7633 14.4412C16.0433 14.2414 16.0433 14.2414 15.3154 14.0879C15.1062 14.0486 15.1062 14.0486 15.0119 13.9373C15.001 13.8207 15.001 13.8207 15.0008 13.6731C15.0005 13.618 15.0003 13.5628 15 13.506C15.0002 13.4462 15.0003 13.3865 15.0005 13.3249C15.0004 13.2638 15.0004 13.2026 15.0003 13.1396C15.0002 13.0102 15.0004 12.8808 15.0007 12.7514C15.0012 12.5526 15.0007 12.354 15.0002 12.1553C15.0002 12.0298 15.0004 11.9043 15.0005 11.7788C15.0003 11.6891 15.0003 11.6891 15 11.5976C15.0003 11.5425 15.0005 11.4873 15.0008 11.4305C15.0009 11.3818 15.001 11.3331 15.001 11.2829C15.0119 11.1663 15.0119 11.1663 15.0973 11.0655C15.1747 11.0372 15.1747 11.0372 15.2682 11.0151C15.3023 11.0069 15.3365 10.9986 15.3717 10.9901C15.408 10.9817 15.4443 10.9734 15.4818 10.9648C15.5187 10.956 15.5556 10.9472 15.5937 10.9381C15.6665 10.9208 15.7394 10.9037 15.8123 10.8867C15.8892 10.8686 15.9659 10.8497 16.0426 10.8303C16.2818 10.7701 16.5196 10.7371 16.7633 10.7129C16.7676 10.6823 16.7719 10.6517 16.7763 10.6202C16.8256 10.2992 16.9036 10.0095 17.0089 9.70835C17.0238 9.6645 17.0388 9.62065 17.0542 9.57548C17.1387 9.33226 17.2313 9.10593 17.3453 8.88018C17.4339 8.69919 17.4339 8.69919 17.4387 8.49286C17.3507 8.32461 17.2579 8.16258 17.1601 8.00203C17.0328 7.79255 16.908 7.58136 16.7846 7.3687C16.761 7.32913 16.7374 7.28957 16.713 7.2488C16.6913 7.21108 16.6695 7.17336 16.6471 7.1345C16.6273 7.10077 16.6075 7.06704 16.5871 7.03228C16.5387 6.90554 16.5526 6.86208 16.5924 6.73262C16.6561 6.63728 16.6561 6.63728 16.7389 6.53782C16.7699 6.50035 16.8008 6.46288 16.8327 6.42428C16.8664 6.38438 16.9001 6.34449 16.9348 6.30338C16.9693 6.26217 17.0038 6.22096 17.0394 6.1785C17.1125 6.09153 17.1857 6.00477 17.2591 5.9182C17.3716 5.78522 17.483 5.65108 17.5944 5.51684C17.6655 5.43257 17.7366 5.34837 17.8078 5.26424C17.8411 5.22384 17.8745 5.18343 17.9088 5.14181C17.9403 5.10513 17.9718 5.06846 18.0042 5.03067C18.0317 4.99805 18.0592 4.96543 18.0875 4.93182C18.1729 4.86846 18.1729 4.86846 18.2845 4.88004C18.3919 4.92091 18.4737 4.97138 18.5684 5.04362C18.6187 5.08165 18.6187 5.08165 18.67 5.12044C18.7051 5.14744 18.7402 5.17443 18.7763 5.20225C18.8124 5.22947 18.8485 5.2567 18.8857 5.28475C19.0412 5.40221 19.1958 5.52082 19.3483 5.64369C19.3886 5.67571 19.4289 5.70772 19.4704 5.74071C19.5042 5.76857 19.538 5.79644 19.5729 5.82514C19.7009 5.89374 19.7486 5.8799 19.8816 5.82573C19.9989 5.75849 20.1122 5.68371 20.226 5.60846C21.0198 5.28664 21.2079 5.16203 21.2146 5.16203C21.34 5.13892 21.4053 5.11446 21.5048 5.01961C21.5985 4.7446 21.634 4.46104 21.673 4.1694C21.6905 4.05074 21.7085 3.9322 21.7266 3.81366C21.7377 3.74001 21.7483 3.66627 21.7584 3.59244C21.7861 3.39524 21.8252 3.24356 21.8893 3.05469Z" fill="white"/>
<path d="M23.2764 20.3477C22.1631 20.3477 21.1344 20.1589 20.1904 19.7812C19.2529 19.3971 18.4359 18.8633 17.7393 18.1797C17.0492 17.4896 16.512 16.6823 16.1279 15.7578C15.7503 14.8333 15.5615 13.8242 15.5615 12.7305C15.5615 11.6367 15.7503 10.6276 16.1279 9.70312C16.512 8.77214 17.0492 7.96484 17.7393 7.28125C18.4359 6.59115 19.2529 6.05729 20.1904 5.67969C21.1344 5.30208 22.1631 5.11328 23.2764 5.11328C24.3896 5.11328 25.415 5.30534 26.3525 5.68945C27.29 6.06706 28.1006 6.59766 28.7842 7.28125C29.4743 7.96484 30.0114 8.76888 30.3955 9.69336C30.7796 10.6178 30.9717 11.6302 30.9717 12.7305C30.9717 13.8242 30.7796 14.8366 30.3955 15.7676C30.0179 16.6921 29.484 17.4961 28.7939 18.1797C28.1038 18.8633 27.29 19.3971 26.3525 19.7812C25.415 20.1589 24.3896 20.3477 23.2764 20.3477ZM23.2764 17.7207C23.9339 17.7207 24.5426 17.5938 25.1025 17.3398C25.6689 17.0859 26.1605 16.7344 26.5771 16.2852C26.9938 15.8294 27.3161 15.3021 27.5439 14.7031C27.7783 14.0977 27.8955 13.4401 27.8955 12.7305C27.8955 12.0208 27.7783 11.3633 27.5439 10.7578C27.3161 10.1523 26.9938 9.625 26.5771 9.17578C26.1605 8.72005 25.6689 8.36849 25.1025 8.12109C24.5426 7.86719 23.9339 7.74023 23.2764 7.74023C22.6123 7.74023 21.9971 7.86719 21.4307 8.12109C20.8708 8.36849 20.3792 8.72005 19.9561 9.17578C19.5394 9.625 19.2139 10.1523 18.9795 10.7578C18.7516 11.3633 18.6377 12.0208 18.6377 12.7305C18.6377 13.4401 18.7516 14.0977 18.9795 14.7031C19.2139 15.3086 19.5394 15.8392 19.9561 16.2949C20.3792 16.7441 20.8708 17.0957 21.4307 17.3496C21.9971 17.597 22.6123 17.7207 23.2764 17.7207ZM45.5572 20.0547H42.1002L35.2545 10.0547V20.0547H32.2467V5.40625H35.7037L42.5494 15.4258V5.40625H45.5572V20.0547ZM53.6779 20.0547H50.6701V8.0332H46.3537V5.40625H58.0041V8.0332H53.6779V20.0547ZM71.0076 20.0547H67.6775L64.6014 14.7617H61.8084V20.0547H58.8006V5.40625H64.7381C65.9165 5.40625 66.9256 5.5918 67.7654 5.96289C68.6053 6.33398 69.2466 6.87109 69.6893 7.57422C70.1385 8.27083 70.3631 9.10742 70.3631 10.084C70.3631 11.0866 70.1255 11.9427 69.6502 12.6523C69.1814 13.3555 68.5109 13.8828 67.6385 14.2344L71.0076 20.0547ZM61.8084 12.3691H64.5135C65.4054 12.3691 66.089 12.1836 66.5643 11.8125C67.046 11.4349 67.2869 10.8978 67.2869 10.2012C67.2869 9.50456 67.046 8.9707 66.5643 8.59961C66.089 8.22201 65.4054 8.0332 64.5135 8.0332H61.8084V12.3691ZM79.2162 20.3477C78.1029 20.3477 77.0743 20.1589 76.1303 19.7812C75.1928 19.3971 74.3757 18.8633 73.6791 18.1797C72.989 17.4896 72.4519 16.6823 72.0678 15.7578C71.6902 14.8333 71.5014 13.8242 71.5014 12.7305C71.5014 11.6367 71.6902 10.6276 72.0678 9.70312C72.4519 8.77214 72.989 7.96484 73.6791 7.28125C74.3757 6.59115 75.1928 6.05729 76.1303 5.67969C77.0743 5.30208 78.1029 5.11328 79.2162 5.11328C80.3295 5.11328 81.3549 5.30534 82.2924 5.68945C83.2299 6.06706 84.0404 6.59766 84.724 7.28125C85.4141 7.96484 85.9512 8.76888 86.3354 9.69336C86.7195 10.6178 86.9115 11.6302 86.9115 12.7305C86.9115 13.8242 86.7195 14.8366 86.3354 15.7676C85.9577 16.6921 85.4239 17.4961 84.7338 18.1797C84.0437 18.8633 83.2299 19.3971 82.2924 19.7812C81.3549 20.1589 80.3295 20.3477 79.2162 20.3477ZM79.2162 17.7207C79.8738 17.7207 80.4825 17.5938 81.0424 17.3398C81.6088 17.0859 82.1003 16.7344 82.517 16.2852C82.9337 15.8294 83.2559 15.3021 83.4838 14.7031C83.7182 14.0977 83.8354 13.4401 83.8354 12.7305C83.8354 12.0208 83.7182 11.3633 83.4838 10.7578C83.2559 10.1523 82.9337 9.625 82.517 9.17578C82.1003 8.72005 81.6088 8.36849 81.0424 8.12109C80.4825 7.86719 79.8738 7.74023 79.2162 7.74023C78.5521 7.74023 77.9369 7.86719 77.3705 8.12109C76.8106 8.36849 76.3191 8.72005 75.8959 9.17578C75.4792 9.625 75.1537 10.1523 74.9193 10.7578C74.6915 11.3633 74.5775 12.0208 74.5775 12.7305C74.5775 13.4401 74.6915 14.0977 74.9193 14.7031C75.1537 15.3086 75.4792 15.8392 75.8959 16.2949C76.3191 16.7441 76.8106 17.0957 77.3705 17.3496C77.9369 17.597 78.5521 17.7207 79.2162 17.7207ZM97.7568 20.0547H88.1865V5.40625H91.1943V17.4277H97.7568V20.0547ZM112.069 20.0547H108.612L101.766 10.0547V20.0547H98.7584V5.40625H102.215L109.061 15.4258V5.40625H112.069V20.0547ZM121.069 20.3477C119.955 20.3477 118.927 20.1589 117.983 19.7812C117.045 19.3971 116.228 18.8633 115.531 18.1797C114.841 17.4896 114.304 16.6823 113.92 15.7578C113.543 14.8333 113.354 13.8242 113.354 12.7305C113.354 11.6367 113.543 10.6276 113.92 9.70312C114.304 8.77214 114.841 7.96484 115.531 7.28125C116.228 6.59115 117.045 6.05729 117.983 5.67969C118.927 5.30208 119.955 5.11328 121.069 5.11328C122.182 5.11328 123.207 5.30534 124.145 5.68945C125.082 6.06706 125.893 6.59766 126.576 7.28125C127.266 7.96484 127.804 8.76888 128.188 9.69336C128.572 10.6178 128.764 11.6302 128.764 12.7305C128.764 13.8242 128.572 14.8366 128.188 15.7676C127.81 16.6921 127.276 17.4961 126.586 18.1797C125.896 18.8633 125.082 19.3971 124.145 19.7812C123.207 20.1589 122.182 20.3477 121.069 20.3477ZM121.069 17.7207C121.726 17.7207 122.335 17.5938 122.895 17.3398C123.461 17.0859 123.953 16.7344 124.369 16.2852C124.786 15.8294 125.108 15.3021 125.336 14.7031C125.571 14.0977 125.688 13.4401 125.688 12.7305C125.688 12.0208 125.571 11.3633 125.336 10.7578C125.108 10.1523 124.786 9.625 124.369 9.17578C123.953 8.72005 123.461 8.36849 122.895 8.12109C122.335 7.86719 121.726 7.74023 121.069 7.74023C120.404 7.74023 119.789 7.86719 119.223 8.12109C118.663 8.36849 118.171 8.72005 117.748 9.17578C117.332 9.625 117.006 10.1523 116.772 10.7578C116.544 11.3633 116.43 12.0208 116.43 12.7305C116.43 13.4401 116.544 14.0977 116.772 14.7031C117.006 15.3086 117.332 15.8392 117.748 16.2949C118.171 16.7441 118.663 17.0957 119.223 17.3496C119.789 17.597 120.404 17.7207 121.069 17.7207ZM145.693 20.0547H142.685V9.70312L139.023 17.5938H136.699L133.047 9.73242V20.0547H130.039V5.40625H133.857L137.861 14.2539L141.865 5.40625H145.693V20.0547ZM155.005 20.0547H151.997V13.7949L146.451 5.40625H150.103L153.482 11.1484L156.9 5.40625H160.552L155.005 13.8047V20.0547Z" fill="white"/>
<path d="M14.5811 18.127C13.8633 18.8242 13.0122 19.3711 12.0278 19.7676C11.0435 20.1641 9.97363 20.3623 8.81836 20.3623C7.64941 20.3623 6.57275 20.1641 5.58838 19.7676C4.604 19.3643 3.74609 18.8037 3.01465 18.0859C2.29004 17.3613 1.72607 16.5137 1.32275 15.543C0.919434 14.5723 0.717773 13.5127 0.717773 12.3643C0.717773 11.2158 0.919434 10.1562 1.32275 9.18555C1.72607 8.20801 2.29004 7.36035 3.01465 6.64258C3.74609 5.9248 4.604 5.36768 5.58838 4.97119C6.57275 4.56787 7.64941 4.36621 8.81836 4.36621C9.9668 4.36621 11.0298 4.56445 12.0073 4.96094C12.9917 5.35742 13.8428 5.90771 14.5605 6.61182L12.356 8.82666C11.9253 8.30029 11.3989 7.88672 10.7769 7.58594C10.1616 7.27832 9.4917 7.12451 8.76709 7.12451C8.07666 7.12451 7.4375 7.25781 6.84961 7.52441C6.26855 7.78418 5.75928 8.15332 5.32178 8.63184C4.88428 9.10352 4.5459 9.65723 4.30664 10.293C4.06738 10.9287 3.94775 11.6157 3.94775 12.354C3.94775 13.106 4.06738 13.7998 4.30664 14.4355C4.5459 15.0713 4.88428 15.6284 5.32178 16.1069C5.75928 16.5786 6.26855 16.9478 6.84961 17.2144C7.4375 17.4741 8.07666 17.604 8.76709 17.604C9.4917 17.604 10.1616 17.4536 10.7769 17.1528C11.3921 16.8452 11.915 16.4282 12.3457 15.9019L14.5811 18.127Z" fill="white"/>
<path d="M160.571 1.58897L160.889 7.64284L155.487 4.89067L160.571 1.58897Z" fill="white"/>
</svg>
