<svg width="37" height="37" viewBox="0 0 37 37" fill="none" xmlns="http://www.w3.org/2000/svg">
<g filter="url(#filter0_d_118_1497)">
<rect x="33" width="29" height="29" rx="2" transform="rotate(90 33 0)" fill="#343A40"/>
<rect x="33" width="29" height="29" rx="2" transform="rotate(90 33 0)" fill="#343A40"/>
<g filter="url(#filter1_d_118_1497)">
<rect x="20.75" y="13.25" width="3.5" height="8.5" transform="rotate(90 20.75 13.25)" fill="white" stroke="#343A40" stroke-width="0.5"/>
<rect x="21.75" y="17.25" width="3.5" height="8.5" transform="rotate(90 21.75 17.25)" fill="white" stroke="#343A40" stroke-width="0.5"/>
<rect x="18.75" y="9.25" width="3.5" height="6.5" transform="rotate(90 18.75 9.25)" fill="white" stroke="#343A40" stroke-width="0.5"/>
<g filter="url(#filter2_d_118_1497)">
<path d="M26.7093 22.1424C25.7635 23.0316 24.6479 23.7231 23.3627 24.2166C22.0775 24.7101 20.6856 24.9446 19.187 24.9202C17.6707 24.8955 16.2784 24.6157 15.0099 24.0806C13.7415 23.5366 12.6405 22.7913 11.7069 21.8448C10.7823 20.8896 10.0687 19.7782 9.566 18.5106C9.06334 17.2429 8.82414 15.8642 8.8484 14.3746C8.87266 12.8849 9.15662 11.5147 9.70028 10.2641C10.2441 9.00463 10.9935 7.91701 11.9486 7.00127C12.9126 6.08568 14.0371 5.38112 15.3224 4.88762C16.6078 4.38525 18.0086 4.14641 19.5249 4.1711C21.0146 4.19536 22.3893 4.47496 23.6488 5.0099C24.9174 5.54498 26.0097 6.27677 26.9258 7.20524L24.0195 10.0316C23.4719 9.33977 22.7979 8.79218 21.9974 8.38889C21.2058 7.97687 20.3401 7.76321 19.4001 7.7479C18.5046 7.73332 17.6727 7.89273 16.9045 8.22614C16.1453 8.55081 15.4769 9.01888 14.8993 9.63035C14.3218 10.2329 13.8712 10.944 13.5474 11.7636C13.2236 12.5832 13.0539 13.4718 13.0383 14.4295C13.0225 15.4049 13.163 16.3074 13.4599 17.1372C13.7568 17.9668 14.184 18.6966 14.7414 19.3265C15.2989 19.9476 15.9517 20.4373 16.6998 20.7954C17.4569 21.1446 18.2832 21.3266 19.1788 21.3412C20.1187 21.3565 20.9908 21.1756 21.7953 20.7984C22.5998 20.4124 23.2869 19.8825 23.8567 19.2089L26.7093 22.1424Z" fill="white"/>
</g>
</g>
</g>
<defs>
<filter id="filter0_d_118_1497" x="0" y="0" width="37" height="37" filterUnits="userSpaceOnUse" color-interpolation-filters="sRGB">
<feFlood flood-opacity="0" result="BackgroundImageFix"/>
<feColorMatrix in="SourceAlpha" type="matrix" values="0 0 0 0 0 0 0 0 0 0 0 0 0 0 0 0 0 0 127 0" result="hardAlpha"/>
<feOffset dy="4"/>
<feGaussianBlur stdDeviation="2"/>
<feComposite in2="hardAlpha" operator="out"/>
<feColorMatrix type="matrix" values="0 0 0 0 0 0 0 0 0 0 0 0 0 0 0 0 0 0 0.25 0"/>
<feBlend mode="normal" in2="BackgroundImageFix" result="effect1_dropShadow_118_1497"/>
<feBlend mode="normal" in="SourceGraphic" in2="effect1_dropShadow_118_1497" result="shape"/>
</filter>
<filter id="filter1_d_118_1497" x="4.84668" y="4.16943" width="26.0791" height="28.7524" filterUnits="userSpaceOnUse" color-interpolation-filters="sRGB">
<feFlood flood-opacity="0" result="BackgroundImageFix"/>
<feColorMatrix in="SourceAlpha" type="matrix" values="0 0 0 0 0 0 0 0 0 0 0 0 0 0 0 0 0 0 127 0" result="hardAlpha"/>
<feOffset dy="4"/>
<feGaussianBlur stdDeviation="2"/>
<feComposite in2="hardAlpha" operator="out"/>
<feColorMatrix type="matrix" values="0 0 0 0 0 0 0 0 0 0 0 0 0 0 0 0 0 0 0.25 0"/>
<feBlend mode="normal" in2="BackgroundImageFix" result="effect1_dropShadow_118_1497"/>
<feBlend mode="normal" in="SourceGraphic" in2="effect1_dropShadow_118_1497" result="shape"/>
</filter>
<filter id="filter2_d_118_1497" x="4.44668" y="1.76943" width="26.8791" height="29.5524" filterUnits="userSpaceOnUse" color-interpolation-filters="sRGB">
<feFlood flood-opacity="0" result="BackgroundImageFix"/>
<feColorMatrix in="SourceAlpha" type="matrix" values="0 0 0 0 0 0 0 0 0 0 0 0 0 0 0 0 0 0 127 0" result="hardAlpha"/>
<feOffset dy="2"/>
<feGaussianBlur stdDeviation="2.2"/>
<feComposite in2="hardAlpha" operator="out"/>
<feColorMatrix type="matrix" values="0 0 0 0 0.0333333 0 0 0 0 0.0317222 0 0 0 0 0.0317222 0 0 0 0.39 0"/>
<feBlend mode="normal" in2="BackgroundImageFix" result="effect1_dropShadow_118_1497"/>
<feBlend mode="normal" in="SourceGraphic" in2="effect1_dropShadow_118_1497" result="shape"/>
</filter>
</defs>
</svg>
