<svg width="56" height="64" viewBox="0 0 56 64" fill="none" xmlns="http://www.w3.org/2000/svg">
<rect x="34.25" y="27.75" width="10.5" height="23.5" transform="rotate(90 34.25 27.75)" fill="white" fill-opacity="0.83" stroke="#282B2F" stroke-width="1.5"/>
<rect x="37.25" y="39.75" width="9.5" height="23.5" transform="rotate(90 37.25 39.75)" fill="white" stroke="#282B2F" stroke-width="1.5"/>
<rect x="29.25" y="16.75" width="9.5" height="18.5" transform="rotate(90 29.25 16.75)" fill="white" fill-opacity="0.65" stroke="#282B2F" stroke-width="1.5"/>
<path d="M54.7875 55.1296C51.9134 57.8316 48.5236 59.9327 44.618 61.4324C40.7128 62.932 36.4831 63.6446 31.9295 63.5705C27.3219 63.4954 23.0908 62.6451 19.2363 61.0191C15.3821 59.3662 12.0365 57.1015 9.19953 54.2252C6.38989 51.3226 4.22133 47.9455 2.6939 44.0935C1.16648 40.2415 0.43962 36.052 0.513331 31.5253C0.587042 26.9986 1.44992 22.8351 3.10194 19.0348C4.75442 15.2076 7.03179 11.9027 9.934 9.12001C12.8631 6.33777 16.2804 4.19684 20.1859 2.69722C24.0918 1.17066 28.3486 0.444896 32.9561 0.519923C37.4829 0.593634 41.6601 1.44326 45.4876 3.06879C49.3423 4.69475 52.6617 6.91845 55.4454 9.73981L46.6139 18.3284C44.95 16.226 42.9017 14.5621 40.4693 13.3366C38.0638 12.0846 35.4332 11.4353 32.577 11.3888C29.8556 11.3445 27.3277 11.8289 24.9934 12.842C22.6864 13.8286 20.6553 15.2509 18.9002 17.109C17.1454 18.9401 15.7761 21.1009 14.7922 23.5914C13.8084 26.0819 13.2927 28.7822 13.2453 31.6922C13.1971 34.6561 13.6241 37.3987 14.5264 39.92C15.4286 42.4411 16.7266 44.6587 18.4204 46.5728C20.1146 48.4602 22.0982 49.9481 24.3714 51.0363C26.672 52.0976 29.183 52.6507 31.9044 52.695C34.7606 52.7415 37.4107 52.1917 39.8553 51.0455C42.2999 49.8726 44.3878 48.2625 46.1192 46.2156L54.7875 55.1296Z" fill="white"/>
</svg>
